<svg xmlns="http://www.w3.org/2000/svg">
<symbol id="logo">
<g clip-path="url(#clip0)">
<path d="M0 8.56477C0 6.10363 0.8 4.13472 2.4 2.46114C4.1 0.88601 6.1 0 8.6 0C11.2 0 13.2 0.689119 14.8 2.1658L13.6 3.93782C13 3.34715 12.2 2.95337 11.3 2.65803C10.4 2.36269 9.6 2.1658 8.7 2.1658C6.8 2.1658 5.3 2.75648 4.1 3.93782C3 5.21762 2.5 6.6943 2.5 8.56477C2.5 10.4352 3.1 12.0104 4.2 13.2902C5.4 14.5699 6.9 15.1606 8.8 15.1606C9.7 15.1606 10.7 14.9637 11.6 14.5699C12.5 14.1762 13.3 13.6839 14 12.9948L15.3 14.6684C13.5 16.4404 11.3 17.3264 8.7 17.3264C6.1 17.3264 4 16.5389 2.4 14.8653C0.8 13.0933 0 11.0259 0 8.56477Z"/>
<path d="M18.3 17.0311V0.295334H20.6V7.58031H29.4V0.295334H31.8V16.9326H29.4V9.64767H20.6V16.9326H18.3V17.0311Z"/>
<path d="M35.2 8.56477C35.2 6.20207 36 4.13472 37.7 2.46114C39.3 0.787565 41.4 0 43.9 0C46.4 0 48.5 0.787565 50.1 2.46114C51.8 4.13472 52.6 6.10363 52.6 8.56477C52.6 11.0259 51.8 13.0933 50.1 14.7668C48.4 16.4404 46.4 17.3264 43.9 17.3264C41.4 17.3264 39.3 16.4404 37.7 14.7668C36 13.0933 35.2 11.0259 35.2 8.56477ZM37.7 8.56477C37.7 10.4352 38.3 12.0104 39.5 13.2902C40.7 14.5699 42.2 15.1606 44 15.1606C45.8 15.1606 47.3 14.5699 48.5 13.2902C49.7 12.0104 50.3 10.4352 50.3 8.56477C50.3 6.79275 49.7 5.21762 48.5 4.03627C47.3 2.85492 45.8 2.1658 44 2.1658C42.2 2.1658 40.7 2.75648 39.5 4.03627C38.2 5.21762 37.7 6.6943 37.7 8.56477Z"/>
<path d="M0 29.2383C0 26.7772 0.8 24.8083 2.4 23.1347C4.1 21.5596 6.1 20.6736 8.6 20.6736C11.2 20.6736 13.2 21.3627 14.8 22.8394L13.6 24.6114C13 24.0207 12.2 23.6269 11.3 23.3316C10.4 23.0363 9.5 22.8394 8.7 22.8394C6.8 22.8394 5.3 23.43 4.1 24.6114C3 25.7927 2.4 27.3679 2.4 29.1399C2.4 31.0104 3 32.5855 4.1 33.8653C5.3 35.1451 6.8 35.7357 8.7 35.7357C9.6 35.7357 10.6 35.5389 11.5 35.1451C12.4 34.7513 13.2 34.2591 13.9 33.5699L15.2 35.2435C13.4 37.0155 11.2 37.9015 8.6 37.9015C6 37.9015 3.9 37.114 2.3 35.4404C0.8 33.7668 0 31.6995 0 29.2383Z"/>
<path d="M16.8 29.2383C16.8 26.7772 17.6 24.8083 19.2 23.1347C20.8 21.5596 22.9 20.6736 25.4 20.6736C28 20.6736 30 21.3627 31.6 22.8394L30.4 24.6114C29.8 24.0207 29 23.6269 28.1 23.3316C27.2 23.0363 26.3 22.8394 25.5 22.8394C23.6 22.8394 22.1 23.43 20.9 24.6114C19.8 25.7927 19.2 27.3679 19.2 29.1399C19.2 31.0104 19.8 32.5855 20.9 33.8653C22.1 35.1451 23.6 35.7357 25.5 35.7357C26.4 35.7357 27.4 35.5389 28.3 35.1451C29.2 34.7513 30 34.2591 30.7 33.5699L32 35.2435C30.2 37.0155 28 37.9015 25.4 37.9015C22.8 37.9015 20.7 37.114 19.1 35.4404C17.6 33.7668 16.8 31.6995 16.8 29.2383Z"/>
<path d="M33.6 29.2383C33.6 26.8756 34.4 24.8083 36.1 23.1347C37.7 21.4611 39.8 20.6736 42.3 20.6736C44.8 20.6736 46.9 21.4611 48.5 23.1347C50.1 24.8083 51 26.7772 51 29.2383C51 31.6995 50.2 33.7668 48.5 35.4404C46.8 37.114 44.8 38 42.3 38C39.8 38 37.7 37.114 36.1 35.4404C34.4 33.7668 33.6 31.6995 33.6 29.2383ZM36 29.2383C36 31.1088 36.6 32.6839 37.8 33.9637C39 35.2435 40.5 35.8342 42.3 35.8342C44.1 35.8342 45.6 35.2435 46.8 33.9637C48 32.6839 48.6 31.1088 48.6 29.2383C48.6 27.4663 48 25.8912 46.8 24.7098C45.6 23.5285 44.1 22.8394 42.3 22.8394C40.5 22.8394 39 23.43 37.8 24.7098C36.6 25.8912 36 27.3679 36 29.2383Z"/>
</g>
<defs>
<clipPath id="clip0">
<rect/>
</clipPath>
</defs>
</symbol>

<symbol id="phone">
<path d="M13.7455 13.0923C13.4909 13.5935 12.9818 13.8441 12.4727 14.0947C11.8364 14.4706 11.3273 14.5959 10.6909 14.5959C9.8 14.5959 8.90909 14.22 8.14545 13.9694C7.50909 13.7188 7 13.4682 6.36364 13.2176C4.58182 12.09 2.54545 10.0853 1.52727 8.45643C1.14545 7.82996 0.890909 7.32878 0.636364 6.70231C0.381818 5.82525 0 5.07349 0 4.07113C0 3.44466 0.127273 2.81819 0.509091 2.19172C0.763636 1.69054 1.01818 1.18936 1.52727 0.938771C1.90909 0.938771 2.54545 0.813477 2.92727 0.813477C3.05455 0.813477 3.05455 0.813477 3.18182 0.813477C3.43636 0.938771 3.56364 1.31465 3.69091 1.56524C3.94545 2.19172 4.32727 2.69289 4.58182 3.31936C4.83636 3.56995 5.09091 3.82054 5.09091 4.07113C5.09091 4.6976 3.30909 5.57466 3.30909 6.07584C3.30909 6.32643 3.56364 6.70231 3.69091 6.9529C4.70909 8.70702 5.98182 9.95997 7.76364 10.9623C8.01818 11.0876 8.4 11.3382 8.65455 11.3382C9.16364 11.3382 10.0545 9.58408 10.6909 9.58408C10.9455 9.58408 11.2 9.83467 11.4545 10.0853C11.9636 10.4611 12.6 10.7117 13.1091 11.0876C13.3636 11.2129 13.7455 11.3382 13.8727 11.5888C13.8727 11.7141 13.8727 11.7141 13.8727 11.8394C14 12.09 13.8727 12.7164 13.7455 13.0923Z"/>
</symbol>

<symbol id="person">
<path d="M62.03 19.665C62.72 18.975 63.41 18.285 63.755 17.595C66.17 14.49 65.825 13.11 63.41 11.04C60.995 8.97 57.2 12.075 57.2 12.075C57.2 12.075 56.855 12.42 56.51 12.765C52.715 9.315 47.885 6.555 42.365 5.175C40.295 2.07 37.19 0 33.74 0C29.945 0 26.84 2.415 24.77 5.52C20.285 6.9 16.145 9.315 12.695 12.42C12.005 12.075 10.625 10.695 8.9 10.35C6.485 10.005 4.07 11.73 3.725 14.145C3.725 15.525 5.105 17.595 6.83 19.665C3.725 24.495 2 30.015 2 36.225C2 53.82 16.49 68.31 34.43 68.31C40.64 68.31 46.85 66.585 51.68 63.48L50.645 61.065C46.16 49.68 47.195 42.435 47.54 38.985C48.575 35.19 52.37 30.015 54.44 27.255C55.82 25.53 57.89 23.805 59.96 21.735C62.72 25.875 64.1 30.705 64.1 36.225C64.1 44.16 60.65 51.405 55.475 56.925L57.545 58.65C63.41 52.785 66.86 44.85 66.86 36.225C66.86 30.015 65.135 24.495 62.03 19.665ZM33.74 2.76C38.225 2.76 41.675 6.9 41.675 12.075C41.675 17.25 38.225 21.39 33.74 21.39C29.255 21.39 25.805 17.595 25.805 12.075C25.805 6.555 29.255 2.76 33.74 2.76ZM33.74 24.15C39.605 24.15 44.435 18.63 44.435 12.075C44.435 10.695 44.09 9.66 43.745 8.28C47.885 9.66 51.335 11.73 54.44 14.49C51.68 16.905 47.54 20.01 45.47 21.39C42.365 23.805 37.19 26.22 33.05 26.22C28.91 26.22 26.84 24.495 23.735 23.115C20.975 21.735 16.49 16.56 14.42 14.49C17.18 12.075 20.285 10.35 23.39 8.97C23.39 10.005 23.045 11.04 23.045 12.075C23.045 18.975 27.875 24.15 33.74 24.15ZM4.76 36.225C4.76 31.05 6.14 26.22 8.555 21.735C9.245 22.425 9.59 22.77 9.59 22.77C9.59 22.77 18.215 32.775 19.94 35.19C21.665 37.605 19.595 39.33 18.215 45.54C17.18 50.37 17.18 56.925 17.18 60.03C9.59 54.51 4.76 45.885 4.76 36.225ZM58.235 19.665C56.855 21.045 52.025 25.185 47.885 31.74C43.745 38.295 44.435 43.47 44.78 47.265C45.125 51.06 46.16 54.51 46.505 55.89C46.85 56.925 48.23 60.72 48.575 61.755C44.435 63.825 39.605 65.205 34.775 65.205C29.255 65.205 24.425 63.825 19.94 61.41C19.94 49.68 20.63 47.955 20.975 46.23C20.975 44.505 22.01 41.055 23.045 38.295C23.735 35.88 22.7 33.81 21.665 32.775C20.63 31.74 10.625 19.665 8.9 17.25C6.83 14.835 6.485 13.8 8.21 13.11C9.935 12.075 14.42 17.595 16.49 20.01C18.215 22.425 26.15 28.98 33.395 28.635C40.64 28.29 45.815 24.495 47.885 23.115C49.61 21.735 58.58 14.49 59.96 13.455C61.34 12.42 63.065 13.455 62.72 14.49C62.375 15.525 59.615 18.285 58.235 19.665Z"/>
</symbol>

<symbol id="smile">
<path d="M34 2C16.4314 2 2 16.4314 2 34C2 51.5686 16.4314 66 34 66C51.5686 66 66 51.5686 66 34C66 16.4314 51.5686 2 34 2ZM34 63.4902C17.6863 63.4902 4.5098 50.3137 4.5098 34C4.5098 17.6863 17.6863 4.5098 34 4.5098C50.3137 4.5098 63.4902 17.6863 63.4902 34C63.4902 50.3137 50.3137 63.4902 34 63.4902Z"/>
<path d="M34 50.6275C23.0196 50.6275 16.4314 40.902 16.4314 40.902L14.2353 42.4706C23.0196 53.7647 34 53.451 34 53.451C34 53.451 44.9804 54.0785 53.7647 42.4706L51.5686 40.902C51.5686 40.902 44.9804 50.6275 34 50.6275Z"/>
<path d="M23.3333 37.451C30.8627 34 32.1176 29.6078 32.1176 27.4118C32.1176 24.902 30.549 22.0784 27.7255 22.0784C24.5882 22.0784 23.3333 23.6471 23.3333 23.6471C23.3333 23.6471 22.0784 22.0784 18.9412 22.0784C16.1176 22.0784 14.549 25.2157 14.549 27.4118C14.549 29.6078 15.8039 34 23.3333 37.451ZM23.3333 26.7843C24.902 24.2745 29.2941 23.9608 29.6078 27.098C29.6078 31.4902 23.3333 34.6275 23.3333 34.6275C23.3333 34.6275 17.0588 31.4902 17.0588 27.098C17.3725 23.9608 21.7647 24.2745 23.3333 26.7843Z"/>
<path d="M44.6667 37.451C52.1961 34 53.451 29.6078 53.451 27.7255C53.451 25.2157 51.8824 22.3922 49.0588 22.3922C45.9216 22.3922 44.6667 23.9608 44.6667 23.9608C44.6667 23.9608 43.4118 22.3922 40.2745 22.3922C37.451 22.3922 35.8824 25.5294 35.8824 27.7255C35.8824 29.6078 37.1373 34 44.6667 37.451ZM44.6667 26.7843C46.2353 24.2745 50.6274 23.9608 50.9412 27.098C50.9412 31.4902 44.6667 34.6274 44.6667 34.6274C44.6667 34.6274 38.3922 31.4902 38.3922 27.098C38.7059 23.9608 43.098 24.2745 44.6667 26.7843Z" />
</symbol>

<symbol id="biceps">
<path d="M51.9372 15.4497C45.9103 15.4497 38.1614 19.7547 38.4484 28.6515C38.4484 28.6515 26.6816 24.9206 23.2377 37.2614C23.2377 37.2614 21.2287 32.9565 18.6457 30.9475C15.7758 28.9385 12.3318 23.7726 12.0448 21.1896C12.3318 19.7547 12.6188 19.7547 13.1928 19.4677C13.4798 19.4677 13.4798 21.7636 16.0628 22.0506C18.3587 21.7636 18.9327 21.1896 19.7937 20.0417L22.3767 17.1717C22.3767 17.1717 24.9596 13.7278 22.6637 12.0058C20.6547 9.99681 16.9238 6.26587 12.3318 7.12686C9.74888 7.70085 7.73991 9.70982 7.73991 9.70982L4.29596 12.8668C4.29596 12.8668 2 15.1627 2 19.7547C2 23.7726 2.86099 30.3735 2.86099 30.3735C2.86099 30.3735 3.72197 35.5394 4.00897 37.2614C4.29596 38.9834 6.59193 49.0282 12.0448 54.4811C15.4888 58.4991 17.4978 60.221 19.2197 60.508C22.0897 60.508 23.5247 58.7861 25.8206 58.7861C28.1166 58.7861 30.4126 60.508 35.2915 60.508C40.1704 60.508 51.0762 57.6381 55.6682 43.5753C59.9731 41.8533 66 38.6964 66 29.2255C66 19.7547 57.6771 15.4497 51.9372 15.4497ZM53.9462 41.8533C50.7892 54.4811 40.7444 57.9251 35.8655 58.4991C31.2735 58.4991 28.6906 56.7771 25.2466 56.7771C23.2377 56.7771 20.3677 58.4991 19.5067 58.4991C18.6457 58.4991 16.3498 56.4901 13.4798 53.3331C10.6099 50.1762 9.46188 47.3062 8.3139 45.0103C7.16592 42.7143 5.15695 33.5304 5.15695 33.5304C5.15695 33.5304 4.29596 24.3466 4.29596 20.3287C4.29596 16.5977 6.01794 14.3017 6.01794 14.3017C6.01794 14.3017 8.3139 12.2928 10.6099 10.2838C13.1928 8.27484 16.3498 9.70982 16.3498 9.70982C16.3498 9.70982 19.5067 11.7188 20.6547 12.8668C22.0897 14.0148 20.6547 15.1627 20.6547 15.1627C20.6547 15.1627 17.4978 19.1807 16.3498 19.4677C14.9148 19.7547 14.6278 16.3107 14.6278 16.3107C13.1928 16.8847 10.8969 17.4587 10.0359 20.0417C9.17489 23.1986 13.7668 29.7995 17.2108 32.9565C20.3677 36.1134 22.3767 41.2793 22.3767 41.2793L24.9596 40.4183C24.9596 40.4183 24.6726 34.3914 29.8386 31.2345C35.5785 28.0775 40.7444 32.3825 40.7444 32.3825C39.0224 18.0327 51.6502 17.7457 52.5112 17.7457C53.3722 17.7457 63.417 18.6067 64.278 28.6515C63.704 40.1313 53.9462 41.8533 53.9462 41.8533Z"/>
</symbol>

<symbol id="leaf">
<path d="M5.68662 22.4709C5.68662 22.9568 5.92954 23.4426 5.92954 23.9284C5.92954 25.8718 6.17246 29.0297 6.17246 29.0297H7.38704C7.38704 29.0297 7.38704 23.9284 6.65829 21.2563C5.92954 18.3413 5.68662 12.9971 7.38704 9.11043L6.17246 8.6246C6.17246 8.6246 4.71495 11.5396 4.71495 16.1551C4.71495 19.0701 4.95787 20.2847 5.20078 21.4992C4.22911 20.7705 1.55701 18.3413 1.79993 13.24C2.28577 7.41001 7.38704 2.06581 7.38704 2.06581C7.38704 2.06581 16.375 10.5679 8.35872 20.0417L9.33039 20.7705C9.33039 20.7705 12.9742 16.6409 12.9742 12.0254C12.9742 7.41001 11.0308 3.52332 7.38704 0.365387C7.38704 0.365387 1.07118 6.43834 0.585343 13.7259C0.342425 20.5276 5.4437 22.9568 5.4437 22.9568L5.68662 22.4709Z" />
<path d="M18.3183 16.1551C9.33038 18.8272 9.81622 27.5722 10.0591 29.5156C6.9012 32.6735 5.4437 35.5885 5.4437 35.5885L6.41537 36.0743C15.6462 20.7705 29.9784 23.6855 29.9784 23.6855V22.4709C21.2334 21.4993 15.1604 24.9001 11.0308 28.301C10.7879 25.143 12.2454 17.6126 21.4763 16.8838C32.1647 16.6409 37.2659 22.9568 37.2659 22.9568C31.6788 31.9447 25.363 33.1593 21.4763 33.6452C17.3467 34.3739 12.2454 31.4589 12.2454 31.4589L11.7596 32.4306C11.7596 32.4306 16.1321 35.3456 21.7192 34.8597C33.8651 33.4022 38.4805 22.7138 38.4805 22.7138C37.2659 20.2847 28.278 13.7259 18.3183 16.1551Z"/>
</symbol>

<symbol id="car">
<path d="M39.7406 24.3185V17.3936C39.7406 15.2296 38.875 14.364 38.875 14.364C38.875 14.364 36.711 11.5508 35.4126 9.81961C34.1142 8.08841 32.383 8.08841 32.383 8.08841H25.0254V7.0064C25.0254 5.49159 23.9434 4.40959 22.4285 4.40959H16.1529C14.6381 2.24558 12.0413 0.730774 9.22809 0.730774C4.46727 0.730774 0.788452 4.62599 0.788452 9.38681C0.788452 11.3344 1.43765 13.0656 2.51966 14.5804V24.1021C2.51966 25.6169 3.60166 26.6989 5.11647 26.6989H6.19848V26.9153C6.19848 29.5121 8.36249 31.6761 10.9593 31.6761C13.5561 31.6761 15.7201 29.5121 15.7201 26.9153C15.7201 26.6989 15.7201 26.6989 15.7201 26.6989H22.2121H22.4285C23.0777 26.6989 24.5926 26.6989 26.5402 26.6989V26.9153C26.5402 29.5121 28.7042 31.6761 31.301 31.6761C33.8978 31.6761 36.0618 29.5121 36.0618 26.9153C36.0618 26.6989 36.0618 26.6989 36.0618 26.6989C36.2782 26.6989 36.4946 26.6989 36.4946 26.6989C40.1734 26.9153 39.7406 24.3185 39.7406 24.3185ZM38.6586 16.7444C38.6586 16.7444 38.6586 16.9608 38.6586 17.3936H30.219C29.7862 17.3936 29.3534 16.9608 29.3534 16.528V13.0656C29.3534 12.6328 29.7862 12.2 30.219 12.2H35.8454C36.4946 12.8492 37.1438 13.7148 37.5766 14.364C38.6586 15.6624 38.6586 16.7444 38.6586 16.7444ZM9.22809 2.02918C13.3397 2.02918 16.8021 5.27519 16.8021 9.60321C16.8021 13.9312 13.3397 16.9608 9.22809 16.9608C5.11647 16.9608 1.87046 13.4984 1.87046 9.38681C1.87046 5.27519 5.11647 2.02918 9.22809 2.02918ZM10.7429 30.5941C8.79529 30.5941 7.28048 29.0793 7.28048 27.1317C7.28048 25.1841 8.79529 23.6693 10.7429 23.6693C12.6905 23.6693 14.2053 25.1841 14.2053 27.1317C14.2053 29.0793 12.6905 30.5941 10.7429 30.5941ZM15.0709 25.6169C14.4217 23.8857 12.6905 22.3709 10.7429 22.3709C8.79529 22.3709 7.06408 23.6693 6.41488 25.6169H4.90007C4.25087 25.6169 3.60166 24.9677 3.60166 24.3185V15.6624C5.11647 16.9608 7.06408 17.8264 9.22809 17.8264C13.9889 17.8264 17.6677 13.9312 17.6677 9.38681C17.6677 8.08841 17.2349 6.79 16.8021 5.708H22.4285C23.0777 5.708 23.7269 6.3572 23.7269 7.0064V24.3185C23.7269 24.9677 23.0777 25.6169 22.4285 25.6169H15.0709ZM31.0846 30.5941C29.137 30.5941 27.6222 29.0793 27.6222 27.1317C27.6222 25.1841 29.137 23.6693 31.0846 23.6693C33.0322 23.6693 34.547 25.1841 34.547 27.1317C34.547 29.0793 33.0322 30.5941 31.0846 30.5941ZM36.4946 25.8333H35.629C34.9798 23.8857 33.2486 22.5873 31.301 22.5873C29.137 22.5873 27.4058 23.8857 26.973 25.8333H24.809C25.2418 25.4005 25.4582 24.9677 25.4582 24.3185V8.95401C25.4582 8.95401 30.219 8.95401 32.1666 8.95401C34.1142 8.95401 34.9798 10.2524 34.9798 10.2524C34.9798 10.2524 34.7634 10.6852 35.1962 11.118H30.219C29.137 11.118 28.4878 11.9836 28.4878 12.8492V16.3116C28.4878 17.3936 29.3534 18.0428 30.219 18.0428H38.875C38.875 19.7741 38.875 22.3709 38.875 23.6693C38.6586 26.0497 36.4946 25.8333 36.4946 25.8333Z"/>
</symbol>

<symbol id="tape">
<path d="M36.8031 16.1551C36.8031 13.7259 34.8597 11.7825 32.4306 11.7825H31.4589H10.0821C10.0821 11.7825 4.25207 12.0254 1.57998 7.41001C1.82289 4.00916 4.49499 1.57998 7.89584 1.57998H17.6126C21.2563 1.57998 23.9284 4.49499 23.9284 7.89584V9.11043H25.143V8.13876C25.143 3.76624 21.7422 0.365387 17.3696 0.365387H8.13876C3.76624 0.365387 0.365387 3.76624 0.365387 8.13876V11.2967V11.7825V19.5559C0.365387 23.9284 3.76624 27.3293 8.13876 27.3293H9.83919V26.1147H7.89584C4.25207 26.1147 1.57998 23.1997 1.57998 19.7988V11.7825V11.2967V9.59627C2.30873 10.5679 4.73791 12.9971 9.83919 12.9971C17.1267 12.9971 31.216 12.9971 31.216 12.9971H32.4306C34.131 12.9971 35.3456 14.2117 35.3456 15.9121V17.3696V17.8555C35.3456 19.5559 34.131 20.7705 32.4306 20.7705H32.1876H16.8838C14.4546 20.7705 12.5113 22.7138 12.5113 25.143V31.7018C12.5113 34.131 14.4546 36.0743 16.8838 36.0743H32.4306C34.8597 36.0743 36.8031 34.131 36.8031 31.7018V25.143C36.8031 25.143 36.8031 19.313 36.8031 17.6126C36.8031 17.6126 36.8031 17.6126 36.8031 17.3696V16.1551ZM35.3456 32.1876C35.3456 33.8881 34.131 35.1027 32.4306 35.1027H16.6409C14.9405 35.1027 13.7259 33.8881 13.7259 32.1876V25.143C13.7259 23.4426 14.9405 22.228 16.6409 22.228H21.2563V26.3576H22.4709V22.228H28.058H30.2443V26.3576H31.4589V22.228H32.4306C33.6451 22.228 34.8597 21.7422 35.5885 21.0134V32.1876H35.3456Z"/>
</symbol>

<symbol id="vk">
<path d="M19.891 10.6049C19.891 10.5504 19.8365 10.4959 19.8365 10.4959C19.5095 9.89646 18.8011 9.07902 17.8202 8.20708C17.3842 7.77111 17.1117 7.49864 17.0027 7.33515C16.7847 7.06267 16.7302 6.79019 16.8392 6.51771C16.9482 6.29973 17.2207 5.86376 17.7657 5.15531C18.0381 4.77384 18.2561 4.50136 18.4196 4.28338C19.6185 2.703 20.1635 1.66757 20 1.23161L19.9455 1.12261C19.891 0.959126 19.782 0.90463 19.6185 0.850135C19.455 0.795639 19.2371 0.795639 18.9646 0.850135H15.9673C15.9128 0.850135 15.8583 0.850135 15.7493 0.850135C15.6403 0.850135 15.6403 0.904631 15.6403 0.904631H15.5858L15.5313 0.959127C15.4768 0.959127 15.4768 1.01362 15.4223 1.06812C15.3678 1.12261 15.3678 1.17711 15.3134 1.23161C14.9864 2.04904 14.6049 2.86648 14.2234 3.57493C13.951 4.0109 13.733 4.39237 13.515 4.71934C13.297 5.04632 13.1335 5.2643 12.97 5.42779C12.8065 5.59128 12.6975 5.70027 12.5886 5.80926C12.4796 5.91825 12.3706 5.91825 12.3161 5.91825C12.2616 5.91825 12.2071 5.86376 12.1526 5.86376C12.0436 5.80926 11.9891 5.70027 11.9346 5.59128C11.8801 5.48229 11.8256 5.3733 11.8256 5.20981C11.8256 5.04632 11.7711 4.88283 11.7711 4.77384C11.7711 4.66485 11.7711 4.50136 11.7711 4.28338C11.7711 4.06539 11.7711 3.90191 11.7711 3.84741C11.7711 3.57493 11.7711 3.30245 11.7711 2.97548C11.7711 2.6485 11.7711 2.43052 11.7711 2.26703C11.7711 2.10354 11.7711 1.88556 11.7711 1.66757C11.7711 1.44959 11.7711 1.2861 11.7166 1.17711C11.7166 1.06812 11.6621 0.959126 11.6076 0.850135C11.5531 0.741143 11.4986 0.632151 11.3896 0.577655C11.2807 0.523159 11.1717 0.468664 11.0627 0.414168C10.6812 0.305176 10.2452 0.305176 9.64578 0.305176C8.33788 0.305176 7.52044 0.359671 7.13896 0.577655C6.97548 0.632151 6.86648 0.741143 6.75749 0.904631C6.6485 1.06812 6.59401 1.12261 6.703 1.17711C7.13896 1.23161 7.41144 1.39509 7.57493 1.61308L7.62943 1.72207C7.68392 1.83106 7.73842 1.99455 7.79292 2.21253C7.84741 2.43052 7.84741 2.703 7.90191 2.97548C7.9564 3.46594 7.9564 3.90191 7.90191 4.28338C7.84741 4.66485 7.84741 4.93733 7.79292 5.10082C7.73842 5.3188 7.73842 5.48229 7.62943 5.59128C7.57493 5.70027 7.52044 5.80926 7.52044 5.80926C7.52044 5.86376 7.46594 5.86376 7.46594 5.86376C7.35695 5.91825 7.30245 5.91825 7.19346 5.91825C7.08447 5.91825 6.97548 5.86376 6.86649 5.75477C6.703 5.64577 6.59401 5.53678 6.43052 5.3733C6.26703 5.20981 6.10354 4.99182 5.94005 4.66485C5.77657 4.33787 5.55858 4.0109 5.3406 3.57493L5.17711 3.24795C5.06812 3.02997 4.90463 2.75749 4.74114 2.37602C4.57766 1.99455 4.41417 1.66757 4.25068 1.2861C4.19619 1.17711 4.08719 1.06812 3.9782 0.959127H3.92371C3.86921 0.904631 3.81471 0.90463 3.76022 0.850135C3.70572 0.850135 3.59673 0.795639 3.54223 0.795639H0.708447C0.381471 0.795639 0.163488 0.904631 0.0544959 1.01362V1.06812C0 1.12261 0 1.17711 0 1.23161C0 1.2861 0 1.39509 0.0544959 1.50409C0.490463 2.48501 0.92643 3.41144 1.41689 4.33787C1.90736 5.2643 2.34332 5.97275 2.6703 6.51771C3.05177 7.06267 3.37875 7.60763 3.76022 8.09809C4.14169 8.58855 4.35967 8.91553 4.52316 9.02452C4.63215 9.18801 4.74114 9.24251 4.79564 9.3515L5.06812 9.62398C5.23161 9.78746 5.50409 10.0054 5.77657 10.2234C6.10354 10.4414 6.43052 10.6594 6.86649 10.9319C7.24796 11.1499 7.73842 11.3678 8.22888 11.4768C8.77384 11.6403 9.26431 11.6948 9.75477 11.6403H10.9537C11.1717 11.6403 11.3896 11.5313 11.4986 11.4223L11.5531 11.3678C11.6076 11.3133 11.6076 11.2589 11.6076 11.1499C11.6076 11.0409 11.6621 10.9864 11.6621 10.8774C11.6621 10.6049 11.6621 10.3324 11.7166 10.0599C11.7711 9.84196 11.8256 9.62398 11.8801 9.51498C11.9346 9.40599 12.0436 9.297 12.0981 9.18801C12.2071 9.07902 12.2616 9.07902 12.2616 9.02452C12.3161 9.02452 12.3161 8.97003 12.3706 8.97003C12.5341 8.91553 12.752 8.97003 12.97 9.13351C13.188 9.297 13.406 9.51499 13.624 9.73297C13.842 9.95095 14.0599 10.2234 14.3324 10.5504C14.6049 10.8229 14.8774 11.0954 15.0409 11.2044L15.2589 11.3133C15.4223 11.4223 15.5858 11.4768 15.8038 11.5313C16.0218 11.5858 16.2398 11.6403 16.4033 11.5858L19.0736 11.5313C19.346 11.5313 19.564 11.4768 19.673 11.4223C19.8365 11.3133 19.891 11.2589 19.9455 11.1499C20 11.0409 20 10.9319 19.9455 10.7684C19.9455 10.7684 19.9455 10.6594 19.891 10.6049Z"/>
</symbol>

<symbol id="fb">
<path d="M20 18.9101C20 19.5095 19.5095 20 18.9101 20H13.7875V12.2616H16.4033L16.7847 9.26431H13.7875V7.35695C13.7875 6.48501 14.0054 5.88556 15.2589 5.88556H16.8392V3.16076C16.5668 3.10627 15.6403 3.05177 14.4959 3.05177C12.2071 3.05177 10.6267 4.46866 10.6267 7.02997V9.26431H8.0109V12.2616H10.6267V20H1.08992C0.490463 20 0 19.5095 0 18.9101V1.08992C0 0.490463 0.490463 0 1.08992 0H18.9101C19.5095 0 20 0.490463 20 1.08992V18.9101Z"/>
</symbol>

<symbol id="insta">
<path d="M17.6022 0H2.39782C1.08992 0 0 1.03542 0 2.34332V17.6567C0 18.9646 1.08992 20 2.39782 20H17.6022C18.9101 20 20 18.9646 20 17.6567V2.34332C20 1.03542 18.9101 0 17.6022 0ZM14.3869 3.10627C14.3869 2.77929 14.6594 2.50681 14.9864 2.50681H16.8937C17.2207 2.50681 17.4932 2.77929 17.4932 3.10627V4.95913C17.4932 5.2861 17.2207 5.55858 16.8937 5.55858H15.0409C14.7139 5.55858 14.4414 5.2861 14.4414 4.95913L14.3869 3.10627ZM10.0272 6.15804C12.1526 6.15804 13.8965 7.84741 13.8965 9.97275C13.8965 12.0981 12.1526 13.7875 10.0272 13.7875C7.90191 13.7875 6.15804 12.0981 6.15804 9.97275C6.15804 7.90191 7.90191 6.15804 10.0272 6.15804ZM18.0926 17.4932C18.0926 17.8202 17.8202 18.0926 17.4932 18.0926H2.50681C2.17984 18.0926 1.90736 17.8202 1.90736 17.4932V8.11989H4.35967C4.0327 8.61035 3.92371 9.48229 3.92371 10.0272C3.92371 13.3515 6.6485 16.0763 10.0272 16.0763C13.406 16.0763 16.1308 13.3515 16.1308 10.0272C16.1308 9.48229 16.0763 8.61035 15.6403 8.11989H18.1471L18.0926 17.4932Z"/>
</symbol>

<symbol id="tw">
<path d="M19.455 1.01613C18.6376 1.5066 17.7657 1.83357 16.8392 2.05155C16.0763 1.23412 15.0409 0.743652 13.842 0.743652C11.5531 0.743652 9.75477 2.65101 9.75477 4.93984C9.75477 5.26681 9.80926 5.59379 9.86376 5.92076C6.43052 5.70278 3.43324 4.01341 1.41689 1.4521C1.08992 2.05155 0.871935 2.8145 0.871935 3.57744C0.871935 5.04883 1.58038 6.30224 2.7248 7.06518C2.07084 7.06518 1.41689 6.84719 0.871935 6.52022V6.62921C0.871935 8.64556 2.28883 10.3894 4.14169 10.7709C3.81471 10.8799 3.43324 10.9344 3.05177 10.9344C2.77929 10.9344 2.50681 10.9344 2.28883 10.8799C2.83379 12.5693 4.30518 13.7682 6.10354 13.8227C4.68665 14.9671 2.94278 15.621 0.980926 15.621C0.653951 15.621 0.326975 15.621 0 15.5665C1.79837 16.7654 3.9782 17.4739 6.26703 17.4739C13.842 17.4739 17.9292 11.0434 17.9292 5.4848C17.9292 5.32131 17.9292 5.10332 17.9292 4.93984C18.7466 4.34038 19.455 3.63194 20 2.76C19.2916 3.08698 18.4741 3.30496 17.6567 3.41395C18.4741 2.8145 19.1281 1.99706 19.455 1.01613Z"/>
</symbol>

<symbol id="composition">
<path d="M66.6903 19.1641L60.8069 13.2789C59.9858 12.4575 58.8943 12 57.7301 12C56.5659 12 55.4641 12.4575 54.6429 13.2789C53.7802 14.142 53.3436 15.2961 53.3644 16.4607C52.2002 16.4399 51.0464 16.8766 50.1837 17.7396C49.3209 18.6026 48.8843 19.7568 48.9051 20.9213C47.7409 20.8901 46.5871 21.3373 45.7244 22.2003C44.8616 23.0633 44.425 24.2175 44.4458 25.382C43.2816 25.3612 42.1278 25.7979 41.2651 26.6609L26.7127 41.2179L22.3157 45.6162C22.191 45.7306 22.0974 45.8865 22.0455 46.0529C22.0455 46.0737 22.0351 46.0841 22.0351 46.1049C21.9727 46.344 21.9935 46.5832 22.0974 46.7911C22.1182 46.8431 22.1494 46.8847 22.1702 46.9367C22.3053 47.1343 22.5028 47.2902 22.7523 47.363L26.3177 48.382L27.3363 51.9485C27.4299 52.2916 27.7001 52.5619 28.0536 52.6659L31.6189 53.6849L32.6376 57.2514C32.7103 57.5009 32.8663 57.6985 33.0741 57.8336C33.1157 57.8648 33.1573 57.8856 33.2093 57.9064C33.3444 57.9688 33.4899 58 33.6355 58C33.729 58 33.8226 57.9896 33.9265 57.9584C34.1136 57.9064 34.2695 57.8128 34.3943 57.6777L38.7912 53.2794L45.1007 46.9679C45.2254 47.0927 45.371 47.1759 45.5373 47.2278C45.9011 47.3318 46.2961 47.2382 46.5663 46.9679L54.0816 39.4503C54.487 39.0448 54.487 38.3897 54.0816 37.9842L53.9881 37.8906C54.4247 37.1731 54.6325 36.3517 54.6222 35.5303C55.7863 35.5511 56.9401 35.1144 57.8029 34.2514C58.6656 33.3883 59.1022 32.2342 59.0814 31.0696C60.2456 31.1008 61.3994 30.6537 62.2622 29.7907C63.1249 28.9277 63.5615 27.7735 63.5407 26.609C64.7049 26.6297 65.8587 26.193 66.7215 25.33C67.5426 24.5086 68 23.4064 68 22.2419C67.9688 21.0877 67.5218 19.9855 66.6903 19.1641ZM34.1344 54.9638L33.4484 52.5411C33.3548 52.198 33.0845 51.9277 32.7311 51.8237L29.1658 50.8151L28.1471 47.2486C28.0536 46.9055 27.7833 46.6352 27.4299 46.5312L25.0079 45.8449L27.4299 43.4222L36.5459 52.5411L34.1344 54.9638ZM46.4208 44.1501L43.9781 32.8476C43.8533 32.2862 43.3024 31.9326 42.7411 32.047C42.1798 32.1718 41.8264 32.7229 41.9407 33.2844L44.4043 44.6908L38.022 51.075L28.9059 41.9561L41.9927 28.8653L51.8468 38.7224L46.4208 44.1501ZM65.2246 23.8639C64.5282 24.5606 63.468 24.7373 62.5948 24.2902C62.1998 24.0927 61.7113 24.1655 61.3994 24.4878C61.0876 24.8101 61.0044 25.2884 61.2019 25.6835C61.6385 26.5674 61.4618 27.6279 60.7758 28.3142C60.0897 29.0005 59.0191 29.1876 58.1459 28.7405C57.7509 28.5429 57.2624 28.6157 56.9505 28.9381C56.6387 29.25 56.5555 29.7387 56.753 30.1338C57.1896 31.0176 57.0129 32.0782 56.3269 32.7645C55.6304 33.4611 54.5702 33.6379 53.697 33.1908C53.302 32.9932 52.8135 33.066 52.5017 33.3883C52.1898 33.7003 52.1067 34.189 52.3042 34.5841C52.5744 35.1352 52.616 35.7486 52.4289 36.3101L43.6662 27.5448C44.2276 27.368 44.8408 27.3992 45.3917 27.6695C45.7867 27.8671 46.2753 27.7943 46.5871 27.472C46.899 27.1496 46.9821 26.6713 46.7846 26.2762C46.348 25.3924 46.5248 24.3318 47.2108 23.6456C47.8968 22.9593 48.9675 22.7722 49.8406 23.2193C50.2356 23.4168 50.7242 23.344 51.036 23.0217C51.3479 22.7098 51.431 22.2211 51.2335 21.8259C50.7969 20.9421 50.9736 19.8816 51.6597 19.1953C52.3561 18.4986 53.4164 18.3219 54.2895 18.769C54.6845 18.9665 55.1731 18.8938 55.4849 18.5714C55.7967 18.2595 55.8799 17.7708 55.6824 17.3757C55.2458 16.4919 55.4225 15.4313 56.1086 14.745C56.5452 14.3083 57.1169 14.0796 57.7301 14.0796C58.3434 14.0796 58.9151 14.3187 59.3517 14.745L65.2246 20.6302C65.6612 21.0669 65.8899 21.6388 65.8899 22.2523C65.8899 22.8553 65.6508 23.4376 65.2246 23.8639Z"/>
<path d="M26.9369 65.8641C27.815 65.8641 28.6044 66.0463 29.305 66.4106L28.9687 67.994L28.8146 68.064C28.5343 67.8679 28.2261 67.7137 27.8898 67.6016C27.5535 67.4895 27.2078 67.4335 26.8529 67.4335C25.3676 67.4335 24.625 68.4097 24.625 70.362C24.625 71.4176 24.8165 72.2116 25.1995 72.7441C25.5918 73.2672 26.1616 73.5287 26.9089 73.5287C27.2546 73.5287 27.6095 73.4774 27.9738 73.3746C28.3475 73.2625 28.6838 73.113 28.9827 72.9262L29.1509 73.0243L28.9967 74.6357C28.2868 74.9626 27.5395 75.1261 26.7548 75.1261C25.4096 75.1261 24.3821 74.7338 23.6721 73.9491C22.9715 73.1644 22.6212 72.0388 22.6212 70.5722C22.6212 69.0776 22.9949 67.9192 23.7422 67.0972C24.4988 66.2751 25.5638 65.8641 26.9369 65.8641ZM34.6539 65.8501C35.9243 65.8501 36.9005 66.2378 37.5824 67.0131C38.2737 67.7791 38.6193 68.8721 38.6193 70.2919C38.6193 71.8426 38.2456 73.0383 37.4983 73.879C36.751 74.7198 35.6954 75.1401 34.3316 75.1401C33.0705 75.1401 32.0943 74.7478 31.4031 73.9631C30.7212 73.1691 30.3802 72.0481 30.3802 70.6002C30.3802 69.0776 30.7492 67.9052 31.4872 67.0832C32.2345 66.2611 33.29 65.8501 34.6539 65.8501ZM34.4857 67.3774C33.7384 67.3774 33.1966 67.611 32.8603 68.078C32.524 68.5451 32.3559 69.3064 32.3559 70.362C32.3559 71.567 32.5194 72.4264 32.8463 72.9402C33.1826 73.454 33.7338 73.7109 34.4998 73.7109C35.2471 73.7109 35.7889 73.4774 36.1252 73.0103C36.4614 72.5339 36.6296 71.7585 36.6296 70.6843C36.6296 69.4979 36.4614 68.6525 36.1252 68.1481C35.7982 67.6343 35.2517 67.3774 34.4857 67.3774ZM44.0826 65.8641C44.9607 65.8641 45.75 66.0463 46.4506 66.4106L46.1143 67.994L45.9602 68.064C45.68 67.8679 45.3717 67.7137 45.0354 67.6016C44.6991 67.4895 44.3535 67.4335 43.9985 67.4335C42.5132 67.4335 41.7706 68.4097 41.7706 70.362C41.7706 71.4176 41.9621 72.2116 42.3451 72.7441C42.7374 73.2672 43.3073 73.5287 44.0546 73.5287C44.4002 73.5287 44.7552 73.4774 45.1195 73.3746C45.4931 73.2625 45.8294 73.113 46.1284 72.9262L46.2965 73.0243L46.1424 74.6357C45.4324 74.9626 44.6851 75.1261 43.9004 75.1261C42.5553 75.1261 41.5277 74.7338 40.8178 73.9491C40.1172 73.1644 39.7669 72.0388 39.7669 70.5722C39.7669 69.0776 40.1405 67.9192 40.8878 67.0972C41.6445 66.2751 42.7094 65.8641 44.0826 65.8641ZM53.7192 66.1304L53.6071 67.5456L51.9116 67.4615H51.3511L51.2811 72.1415L51.3651 75H49.4595L49.5576 72.3097L49.4875 67.4615H48.927L47.2036 67.5456L47.0775 67.3914L47.2036 65.9762H53.6071L53.7192 66.1304ZM61.4165 75H59.4829L59.2587 73.823L59.0205 72.9823L57.2549 72.9402L55.6996 72.9823L55.4614 73.7249L55.2232 75H53.3456L56.4002 65.9762H58.6561L61.4165 75ZM58.6141 71.511L57.5492 67.7558H57.4231L56.19 71.511L57.3951 71.539L58.6141 71.511ZM67.6024 70.32C68.2189 70.4694 68.672 70.7216 68.9616 71.0766C69.2605 71.4222 69.41 71.88 69.41 72.4498C69.41 74.1966 68.0415 75.0701 65.3044 75.0701C64.5011 75.0701 63.679 75.0467 62.8383 75L62.9364 72.3097L62.8383 65.9762L66.0471 65.9622C66.9719 65.9622 67.6912 66.1584 68.2049 66.5507C68.7187 66.9337 68.9756 67.4895 68.9756 68.2182C68.9756 68.7039 68.8542 69.1289 68.6113 69.4933C68.3777 69.8576 68.0415 70.1331 67.6024 70.32ZM67.0279 68.4704C67.0279 68.0593 66.9065 67.7698 66.6636 67.6016C66.4207 67.4241 65.9957 67.3354 65.3885 67.3354H64.7019L64.6599 69.7875L65.977 69.8295C66.332 69.7361 66.5935 69.582 66.7617 69.3671C66.9392 69.1523 67.0279 68.8534 67.0279 68.4704ZM65.6267 73.7109C66.2152 73.7109 66.6683 73.5941 66.9859 73.3606C67.3128 73.1271 67.4763 72.7908 67.4763 72.3517C67.4763 71.6885 67.0466 71.2775 66.1872 71.1187L64.6319 71.1467L64.6178 72.1415L64.6599 73.6548C64.9868 73.6922 65.3091 73.7109 65.6267 73.7109Z"/>
</symbol>

  <symbol id="almond">
    <path d="M11.268 19.194a.463.463 0 00-.581.314 5.011 5.011 0 01-4.772 3.553 4.987 4.987 0 01-4.978-4.978c0-3.68 1.294-7.265 3.647-10.096l.792-.952a.695.695 0 01.535-.253c.206 0 .403.094.534.253l.792.952a15.814 15.814 0 013.44 7.537.468.468 0 00.924-.155 16.78 16.78 0 00-3.642-7.982l-.788-.956a1.625 1.625 0 00-1.256-.59c-.487 0-.947.215-1.256.59l-.792.951A16.775 16.775 0 000 18.083a5.921 5.921 0 005.915 5.915 5.869 5.869 0 003.567-1.195 5.974 5.974 0 002.105-3.023.473.473 0 00-.319-.586z"></path>
    <path d="M5.69 11.854a.467.467 0 00-.192.633 11.934 11.934 0 011.373 4.687.47.47 0 00.47.431h.037a.467.467 0 00.43-.501 12.695 12.695 0 00-1.48-5.058.47.47 0 00-.638-.192zm.225 8.16a.47.47 0 00.469-.468.47.47 0 00-.469-.469 1 1 0 01-.998-.998c0-.586.042-1.177.131-1.753a.468.468 0 00-.394-.535.468.468 0 00-.534.394c-.094.623-.14 1.26-.14 1.894 0 1.068.867 1.935 1.935 1.935zm0 1.992a3.928 3.928 0 003.923-3.923.47.47 0 00-.468-.468.47.47 0 00-.469.468 2.99 2.99 0 01-2.986 2.986.47.47 0 00-.468.469c0 .258.21.468.468.468zm3.056-6.801a.47.47 0 00.46-.581 14.831 14.831 0 00-1.514-3.83.469.469 0 00-.816.46 13.926 13.926 0 011.42 3.586.46.46 0 00.45.365zM4.11 11.404a.47.47 0 00-.628.216 14.856 14.856 0 00-1.49 6.458c0 .258.21.47.469.47a.47.47 0 00.468-.47c0-2.08.483-4.171 1.397-6.046a.474.474 0 00-.215-.628zm19.884 1.856l-.113-1.233A16.777 16.777 0 0019.053 1.73a5.918 5.918 0 00-8.362 0 5.918 5.918 0 000 8.361 16.784 16.784 0 0010.298 4.833l1.233.113c.052.004.103.004.15.004.431 0 .844-.168 1.153-.478.338-.342.51-.82.469-1.303zm-1.14.642a.703.703 0 01-.557.202l-1.233-.113a15.822 15.822 0 01-9.716-4.56 4.985 4.985 0 010-7.04 4.938 4.938 0 013.52-1.458 4.94 4.94 0 013.52 1.457 15.833 15.833 0 014.56 9.717l.113 1.233a.71.71 0 01-.206.562z"></path>
    <path d="M14.863 4.917c.267 0 .516.103.703.29.413.413.802.863 1.149 1.332a.469.469 0 10.754-.558 12.603 12.603 0 00-1.237-1.44 1.917 1.917 0 00-1.369-.566c-.515 0-1.003.201-1.368.567a.467.467 0 10.66.66c.193-.182.446-.285.708-.285zm4.251 4.659a12.023 12.023 0 01-4.288-2.344.468.468 0 10-.61.713 12.723 12.723 0 004.627 2.53.471.471 0 00.586-.314.476.476 0 00-.315-.585zm-1.476-6.44a.467.467 0 10-.661.66 13.934 13.934 0 013.29 5.264.469.469 0 00.6.286.47.47 0 00.29-.595 14.884 14.884 0 00-3.52-5.615zm1.219 8.437a13.716 13.716 0 01-3.54-1.533.465.465 0 00-.641.155.465.465 0 00.154.642 14.69 14.69 0 003.778 1.636.465.465 0 00.576-.323.47.47 0 00-.328-.577zm-6.103-8.437a.467.467 0 00-.661 0 3.932 3.932 0 000 5.55.46.46 0 00.333.135.467.467 0 00.333-.797 2.993 2.993 0 010-4.223.477.477 0 00-.005-.665zm-1.402 13.939a.464.464 0 00-.469.469.464.464 0 00.469.469.464.464 0 00.469-.469.484.484 0 00-.136-.333.472.472 0 00-.333-.136z"></path>
  </symbol>
  <symbol id="apitherapy">
    <path d="M4.188 25.55c3.48 2.177 3.25 2.064 3.414 2.064.164 0-.042.094 3.204-1.928 3.25 2.031 3.044 1.928 3.203 1.928.16 0 0 .07 2.617-1.566a.402.402 0 00-.427-.68l-2.195 1.374-2.8-1.75v-2.758l1.464-.914a.402.402 0 00-.427-.68l-1.435.9-2.8-1.75v-2.757l2.8-1.75c1.561.976 1.458.93 1.57.948a.402.402 0 00.446-.244.4.4 0 00-.154-.483l-1.464-.915v-2.758l2.8-1.749 2.8 1.75v.576a.398.398 0 10.798 0v-.576l2.8-1.75 2.8 1.75v2.978a.398.398 0 10.797 0v-3.204a.395.395 0 00-.187-.337l-3.016-1.886V6.4a.395.395 0 00-.188-.337l-3.19-2.003a.402.402 0 00-.421 0l-2.988 1.867-2.992-1.867a.402.402 0 00-.422 0L7.39 6.063a.401.401 0 00-.188.337v2.98l-3.015 1.885a.401.401 0 00-.188.338v3.203c0 .136.07.268.188.338l3.015 1.885v2.758l-3.015 1.886a.401.401 0 00-.188.337v3.204c0 .136.07.262.188.337zm13.02-20.679l2.8 1.75v2.758l-2.8 1.749-2.8-1.75V6.622l2.8-1.75zm-6.402 0l2.8 1.75v2.758l-2.8 1.749-2.8-1.75V6.622l2.8-1.75zm-6.004 6.956l2.8-1.75 2.8 1.75v2.758l-2.8 1.75-2.8-1.75v-2.758zm0 10.403l2.8-1.75 2.8 1.75v2.758l-2.8 1.75-2.8-1.75V22.23z"></path>
    <path d="M22.41 16.01v-.403a2.42 2.42 0 00-.84-1.824l.398-.802a.4.4 0 00-.717-.357l-.37.746a2.385 2.385 0 00-1.746 0l-.37-.746a.397.397 0 00-.333-.225.4.4 0 00-.385.582l.399.802a2.395 2.395 0 00-.844 1.824v.404c-.366-.005-.76-.005-1.201-.005-2.125 0-4.404.966-4.404 2.401 0 1.726 3.25 2.631 4.868 2.36a10.27 10.27 0 00-.065 1.045c0 2.8 1.2 5.038 2.8 5.361v.446a.398.398 0 10.797 0v-.45c1.6-.324 2.8-2.561 2.8-5.361 0-.286-.028-.727-.066-1.042 1.637.273 4.869-.642 4.869-2.359 0-1.435-2.275-2.401-4.404-2.401-.404 0-.812 0-1.187.005zm-4.002-.403a1.598 1.598 0 113.2 0v.422c-.54-.01-1.084.07-1.6.23a4.765 4.765 0 00-1.604-.23v-.422h.004zm1.604 2.552c.188.375.418.727.69 1.046h-1.384c.268-.32.502-.671.694-1.046zm-7.209.248c0-.722 1.66-1.6 3.603-1.6.802 0 2.692-.013 3.189.146-.136.962-1.534 3.058-3.19 3.058-1.936-.004-3.602-.881-3.602-1.604zm5.69 1.6h3.025c.244.192.507.356.783.492l.043.31h-2.735a.398.398 0 100 .797h2.79c.02.267.015.535-.013.802H17.63a4.592 4.592 0 01-.014-.802h.389a.398.398 0 100-.797h-.333l.042-.32c.282-.13.54-.29.779-.482zm-.286 4.802h1.8a.398.398 0 100-.797h-2.096a7.657 7.657 0 01-.183-.802h4.564c-.047.272-.108.54-.183.802h-.497a.398.398 0 100 .797h.202c-.976 2.134-2.632 2.134-3.607 0zm9.005-6.402c0 .995-2.974 1.998-4.4 1.445a4.403 4.403 0 01-2.392-2.899c.577-.173 2.308-.145 3.19-.15 1.942.005 3.602.882 3.602 1.604z"></path>
  </symbol>
  <symbol id="beans">
    <path d="M15.367 10.056a.477.477 0 00-.67-.075 1.374 1.374 0 01-1.725 0 .477.477 0 10-.595.746c.412.332.932.51 1.462.51.53 0 1.05-.182 1.463-.51a.484.484 0 00.065-.67z"></path>
    <path d="M27.653 16.802a5.68 5.68 0 00-1.926-2.616 5.382 5.382 0 00-2.096-.947 5.761 5.761 0 00-1.284-4.252C21.287 7.708 19.764 7 18.057 7h-.276c-1.195 0-2.353.422-3.351 1.223a.965.965 0 01-.6.211.965.965 0 01-.6-.21C12.236 7.421 11.078 7 9.883 7h-.277c-1.232 0-2.386.375-3.332 1.078a5.592 5.592 0 00-1.927 2.616 5.582 5.582 0 00-.192 3.225c.272 1.143.914 2.16 1.856 2.948.717.6 1.505 1.116 2.34 1.533a5.584 5.584 0 00.14 1.627c.272 1.143.914 2.16 1.856 2.948a12.225 12.225 0 0015.647 0c.942-.788 1.584-1.805 1.856-2.948a5.583 5.583 0 00-.197-3.225zm-19.153.6a11.219 11.219 0 01-1.88-1.27c-1.828-1.524-1.907-3.643-1.378-5.115.535-1.481 1.964-3.06 4.36-3.06h.276c.975 0 1.927.35 2.752 1.012.337.272.764.422 1.195.422.431 0 .858-.15 1.195-.422.825-.666 1.777-1.013 2.752-1.013h.277c1.415 0 2.676.581 3.553 1.64a4.796 4.796 0 011.073 3.517 5.815 5.815 0 00-.29-.01h-.277c-1.195 0-2.353.422-3.352 1.224a.965.965 0 01-1.2 0c-.998-.802-2.156-1.224-3.351-1.224h-.277a5.554 5.554 0 00-3.333 1.078 5.591 5.591 0 00-1.926 2.616 9.566 9.566 0 00-.169.605zm16.88 4.837a11.276 11.276 0 01-7.21 2.611c-2.63 0-5.198-.928-7.214-2.61-1.828-1.524-1.907-3.643-1.378-5.115.535-1.481 1.964-3.06 4.36-3.06h.276c.975 0 1.927.35 2.752 1.012a1.92 1.92 0 001.195.421c.431 0 .858-.15 1.195-.421.825-.666 1.777-1.013 2.752-1.013h.276c2.396 0 3.825 1.584 4.36 3.061.544 1.472.464 3.59-1.364 5.114z"></path>
    <path d="M19.623 16.099a.477.477 0 00-.67-.076 1.373 1.373 0 01-1.725 0 .477.477 0 10-.595.746c.412.333.933.51 1.462.51.53 0 1.05-.182 1.463-.51a.476.476 0 00.066-.67zm3.694 6.346a.476.476 0 00-.642-.206 9.793 9.793 0 01-4.505 1.083.48.48 0 00-.478.478.48.48 0 00.479.478c1.739 0 3.403-.398 4.94-1.19a.479.479 0 00.206-.643zm1.852-1.35a.481.481 0 00-.675-.06 17.1 17.1 0 01-.338.271.478.478 0 10.582.76c.126-.094.248-.197.37-.296a.482.482 0 00.06-.675z"></path>
  </symbol>
  <symbol id="flower">
    <path d="M23.531 15.563h-2.639a1.17 1.17 0 00.155-.582v-1.097c0-.168.122-.286.295-.286h1.411c.69 0 1.247-.567 1.247-1.265 0-1.336-.52-2.588-1.462-3.535-.793-.792-2.129-.215-2.129.882a.31.31 0 01-.309.31h-1.41c-.156 0-.306.027-.446.083l-.146-.398a.308.308 0 01.183-.394l1.032-.375c.646-.234.98-.951.745-1.598l-.375-1.031a.308.308 0 01.183-.394c1.045-.38 1.106-1.828.098-2.302a4.978 4.978 0 00-3.82-.168c-.647.234-.98.951-.746 1.598l.375 1.031a.308.308 0 01-.182.394l-.638.23a1.218 1.218 0 00-.365-.891l-.779-.778a.306.306 0 010-.436l.779-.778a1.245 1.245 0 000-1.763A4.953 4.953 0 0011.063.562c-1.12 0-1.66 1.35-.882 2.129a.306.306 0 010 .436l-.778.778a1.245 1.245 0 000 1.762l.778.778a.306.306 0 010 .436l-.29.29a1.266 1.266 0 00-.511-.35l-1.032-.376a.292.292 0 01-.173-.16.313.313 0 01-.01-.233l.376-1.032a1.25 1.25 0 00-.746-1.598 4.958 4.958 0 00-3.82.169c-1.003.468-.942 1.917.098 2.296.16.057.244.235.183.394l-.375 1.032a1.25 1.25 0 00.746 1.598l1.03.375c.16.056.245.234.184.394l-.146.393a1.213 1.213 0 00-.445-.084H3.89a.31.31 0 01-.309-.31c0-1.096-1.336-1.673-2.128-.88A5.083 5.083 0 000 12.346c0 .689.558 1.247 1.247 1.247h1.36c.173 0 .3.122.3.286v1.097c0 .21.05.407.145.58H.469a.47.47 0 00-.469.47c0 .257.21.468.469.468H23.53a.466.466 0 100-.933zm-17.493 0a1.224 1.224 0 00-.783-.282H4.158a.308.308 0 01-.314-.3v-1.097c0-.689-.544-1.223-1.238-1.223h-1.36a.309.309 0 01-.308-.31c0-1.082.43-2.132 1.19-2.887a.308.308 0 01.525.216c0 .689.558 1.247 1.247 1.247l1.36-.005a.33.33 0 01.243.117.383.383 0 00.056.094c.014.033.02.07.02.108v1.087c0 .699.552 1.266 1.232 1.266h1.097c.169 0 .295.122.295.286v1.097c0 .21.052.407.15.58H6.037v.005zm4.523-.282H9.464c-.173 0-.319-.136-.319-.3v-1.097c0-.689-.539-1.223-1.232-1.223H6.816c-.16 0-.296-.15-.296-.328v-1.097c0-.15-.028-.295-.08-.431l.291-.802a1.25 1.25 0 00-.745-1.598L4.955 8.03a.304.304 0 01-.183-.394l.375-1.031a1.25 1.25 0 00-.745-1.599.306.306 0 01-.024-.567 4.029 4.029 0 013.103-.136c.16.056.244.234.183.394L7.29 5.728a1.24 1.24 0 00.745 1.594l1.032.375c.08.028.14.089.178.164a1.244 1.244 0 00.168 1.551l.779.779a.306.306 0 010 .436l-.779.778a1.245 1.245 0 000 1.762l1.229 1.228c-.085.263-.085.544.014.816l.028.08a1.15 1.15 0 00-.122-.01zm.684-1.608l-1.176-1.176a.306.306 0 010-.436l.778-.778a1.245 1.245 0 000-1.763l-.778-.778a.306.306 0 010-.436l.778-.778a1.245 1.245 0 000-1.762c-.713-.75-.867-.774-.867-.994a.3.3 0 01.089-.216l.778-.778a1.245 1.245 0 000-1.762.308.308 0 01.216-.525 4.02 4.02 0 012.868 1.19.306.306 0 010 .436l-.778.778a1.245 1.245 0 000 1.763l.778.778a.306.306 0 010 .436l-.778.778a1.245 1.245 0 000 1.762l.54.54-.718.262a1.24 1.24 0 00-.745 1.594l.375 1.031a.308.308 0 01-.183.394l-1.031.375a2.041 2.041 0 00-.146.065zm2.77-4.73l-.196-.196a.31.31 0 01-.024-.413c.024.075.02.057.22.61zm1.618 4.45l.375 1.03a.308.308 0 01-.183.394l-1.031.375a1.225 1.225 0 00-.525.37h-2.49l-.248-.68a.308.308 0 01.183-.393l1.031-.375c.647-.234.98-.952.746-1.598l-.375-1.032a.305.305 0 01.183-.394l1.03-.374c.16-.057.3-.146.423-.258l.004-.005.014-.014c.352-.342.474-.858.305-1.317L14.7 8.09a.308.308 0 01.183-.394l1.031-.375c.647-.234.98-.947.745-1.599l-.375-1.03a.308.308 0 01.183-.395 4.029 4.029 0 013.103.136.307.307 0 01-.023.568c-.647.234-.98.946-.745 1.593l.375 1.032a.308.308 0 01-.183.393l-1.032.375c-.646.235-.98.952-.745 1.599l.328.895c.005.07.028.14.066.202a.305.305 0 01-.202.328l-1.03.375a1.25 1.25 0 00-.746 1.598zm4.476.487v1.097c0 .173-.168.253-.323.253h-1.097c-.276 0-.553.117-.787.328h-1.486c.459-.31.675-.905.473-1.458l-.375-1.031a.308.308 0 01.183-.394l1.031-.375a1.24 1.24 0 00.806-1.34.343.343 0 01.15-.043h1.411c.69 0 1.247-.553 1.247-1.242 0-.277.333-.413.525-.216a4.005 4.005 0 011.195 2.87c0 .173-.145.327-.309.327h-1.41c-.695 0-1.234.54-1.234 1.224z"></path>
  </symbol>
  <symbol id="oat">
    <path d="M19.47 18.321c.46.732 1.187 1.13 1.965 1.13a2.46 2.46 0 001.093-.262l1.397-.493-.933-1.153a2.338 2.338 0 00-1.613-1.093 2.39 2.39 0 001.388-.567l1.238-.811-1.182-.896a2.46 2.46 0 00-.891-.553c.267-.202.497-.47.675-.793l.858-1.21-1.425-.403a2.338 2.338 0 00-1.637-.09 2.4 2.4 0 00.793-1.19l.595-1.356-1.477-.107c-1.242-.24-2.354.426-2.72 1.636l-.478 1.083a8.254 8.254 0 00-.961-.937l1.144-.61c1.182-.455 1.763-1.613 1.43-2.832l-.215-1.468-1.309.694c-1.182.455-1.763 1.613-1.43 2.837l.178 1.21a7.995 7.995 0 00-1.266-.797l.558-1.018c.74-1.027.596-2.317-.356-3.156L13.909 4l-.713 1.299c-.741 1.027-.596 2.316.356 3.156l.47.525c-.104-.042-.203-.084-.31-.122a.42.42 0 00-.479.16l-.769-.882c-.713-1.046-1.97-1.355-3.085-.755L8 7.925l.97 1.116c.47.69 1.173 1.06 1.923 1.06.127 0 .253-.014.375-.038-.595.23-1.083.708-1.34 1.384l-.685 1.317 1.467.202c.22.056.441.084.657.084.38 0 .74-.093 1.06-.262-.117.347-.16.731-.103 1.135l.037 1.482 1.383-.53c.113-.029.22-.07.324-.113a2.62 2.62 0 00-.084.352l-.399 1.425 1.477-.098c.019 0 .038-.005.056 0-.234.21-.44.469-.59.783l-.798 1.247 1.445.333c.168.061.337.099.506.122a2.33 2.33 0 00-1.641.9l-1.055 1.041 1.336.643c.418.267.868.399 1.304.399.684 0 1.346-.315 1.829-.92l.056-.056c-1.318 3.184-4.155 5.52-7.892 6.232a.421.421 0 00.075.835c.028 0 .051-.005.08-.01 3.803-.726 6.738-3.01 8.253-6.147l-.056 1.243c-.211 1.247.487 2.34 1.711 2.677l1.374.558.07-1.482c.212-1.247-.487-2.34-1.711-2.677l-1.28-.525c.23-.507.417-1.032.576-1.576l.179.628c.197 1.248 1.205 2.068 2.47 1.998l1.478.098-.403-1.425c-.197-1.252-1.215-2.068-2.472-1.998l-1.06-.07c.1-.464.174-.938.216-1.421l.352.45zM17.53 6.81l.328-.169.047.31.01.051c.229.811-.146 1.557-.934 1.852l-.328.17-.047-.31-.01-.052c-.234-.811.141-1.557.934-1.852zm-3.64-1.036l.184-.324.21.234.038.038c.638.553.732 1.379.23 2.059l-.183.323-.206-.234-.038-.038c-.638-.548-.731-1.378-.234-2.058zm4.925 17.444l.018-.366.291.117.052.02c.816.215 1.266.913 1.116 1.748l-.019.366-.29-.117-.052-.019c-.816-.216-1.267-.92-1.116-1.75zm1.153-2.997h.028c.84-.06 1.491.47 1.613 1.304l.099.356-.342-.023h-.028c-.835.06-1.492-.469-1.614-1.304l-.098-.356.342.023zm-.802-3.273c0-.122.01-.239.01-.36a8.723 8.723 0 00-.108-1.22l.53.403c.37.361.806.577 1.261.652a2.456 2.456 0 00-.914.253l-.779.272zm-.59-3.362l1.036.295c.065.029.131.052.192.07-.052.038-.103.066-.155.109l-.76.497a6.88 6.88 0 00-.314-.971zm3.713 4.422l.23.29-.295.104-.052.023c-.75.38-1.552.155-1.993-.562l-.23-.291.296-.103.051-.024c.75-.384 1.553-.16 1.993.563zm.258-2.992l-.262.174-.043.033c-.642.553-1.472.52-2.072-.07l-.29-.226.262-.173.042-.033c.638-.554 1.472-.52 2.073.07l.29.225zm-.816-3.02l.352.104-.183.257-.028.047c-.394.746-1.182 1.023-1.955.69l-.352-.104.183-.258.028-.046c.399-.746 1.182-1.023 1.955-.69zm-3.352-1.58l.018-.052c.235-.81.947-1.242 1.777-1.069l.366.028-.126.286-.02.052c-.234.811-.951 1.238-1.776 1.07l-.366-.029.127-.286zm.098 1.149a2.366 2.366 0 001.21-.056c-.253.197-.474.45-.643.76l-.647.909a8.29 8.29 0 00-1.031-1.693l1.111.08zm-1.083 1.486l-.938.061a2.465 2.465 0 00-1.008.16c.089-.32.122-.666.07-1.032l-.037-1.458a7.366 7.366 0 011.913 2.27zM9.66 8.553l-.24-.281.292-.113.051-.023c.736-.408 1.548-.211 2.012.492l.24.282-.292.112-.051.024c-.737.408-1.548.206-2.012-.493zm2.396 1.243l1.112-.436a.416.416 0 00.262.295 7.003 7.003 0 012.03 1.112l-1.364.52c-.206.052-.39.131-.563.22l.685-1.317-1.468-.202a2.422 2.422 0 00-.998-.051c.103-.043.206-.085.304-.141zm-1.144 2.35l-.366-.057.146-.277.023-.051c.286-.793 1.027-1.177 1.843-.952l.366.056-.146.277-.023.051c-.29.793-1.032 1.178-1.843.952zm2.617 1.917l-.347.127-.01-.314-.004-.056c-.132-.835.333-1.525 1.153-1.722l.347-.126.01.314.004.056c.132.835-.333 1.524-1.153 1.721zm1.538 1.534l-.342.023.084-.3.01-.056c.116-.797.707-1.308 1.49-1.308.038 0 .075 0 .118.004h.028l.342-.023-.084.3-.01.056c-.122.835-.76 1.36-1.608 1.308l-.028-.004zm2.466-1.154l.197-.699c.324.77.52 1.604.577 2.472l-.84-.193a2.594 2.594 0 00-.712-.14 2.32 2.32 0 00.778-1.44zm-2.443 3.48l.17-.263.027-.047c.357-.764 1.13-1.078 1.918-.783l.361.084-.169.263-.028.047c-.356.764-1.13 1.083-1.918.783l-.36-.084zm1.754 2.494l-.037.043c-.516.665-1.342.801-2.045.342l-.328-.164.225-.22.037-.043c.516-.666 1.337-.802 2.045-.342l.328.164-.225.22zm.333-1.106a2.468 2.468 0 00-.957-.361c.802-.066 1.515-.54 1.9-1.346l.192-.3a10.98 10.98 0 01-.366 2.377l-.769-.37z" fill="#000"></path>
  </symbol>
  <symbol id="seeds">
    <g clip-path="url(#clip0)">
      <path d="M26.482 14.145l-.178-.71-.658.536a5.304 5.304 0 00-.596-1.216l-.127-.179-.22-.019a5.052 5.052 0 00-.926.038l.291-.888-.812.197a10.04 10.04 0 00-.742.216v-.004c.103-5.354-2.152-7.73-2.41-7.98-.005-.005-.01-.005-.014-.01-.005-.004-.01-.013-.014-.018-.033-.023-.066-.038-.103-.056-.02-.01-.033-.02-.052-.029A.53.53 0 0019.728 4h-.004c-.357.038-3.603.484-6.89 4.753-.188.287-.362.587-.526.892-1.494-1.07-2.635-1.343-2.969-1.404a.463.463 0 00-.38.103c-.17.146-1.174 1.062-1.968 3.03-.01.023-.019.042-.028.066-.47 1.188-.864 2.742-.963 4.738.038 1.156.216 2.335.535 3.5.32 1.164.766 2.268 1.344 3.315 1.343 2.02 2.564 2.522 3.56 2.522.591 0 1.108-.178 1.517-.319.216-.075 1.15-.338 1.305-.371.465.944 1.264 1.334 1.846 1.616a30.12 30.12 0 011.39.789c.498.328 1.165.77 2.09.77.879 0 1.987-.4 3.4-1.677a14.918 14.918 0 002.096-2.855 14.95 14.95 0 001.395-3.297c.563-2.753.314-4.796.004-6.026zm-3.03-.554c.423-.09.748-.108.959-.113.122.211.3.578.465 1.113l-2.381 1.926.958-2.926zM18.62 5.249a20.504 20.504 0 00-1.137 1.94.47.47 0 00.193.63c.07.037.146.051.216.051.17 0 .329-.09.413-.249.526-1 1-1.766 1.49-2.419.633.836 1.864 2.969 1.789 6.857a6.937 6.937 0 01-.057.437.143.143 0 00-.037.019c-.122.056-.25.113-.38.178l-.254.127-.146.075c-.474.254-.944.54-1.414.865-.033.018-.06.042-.094.065a14.03 14.03 0 00-.756.569c-.06.051-.127.103-.192.155-.085.066-.165.136-.25.206-.15.127-.3.259-.45.395a14.813 14.813 0 00-1.658 2.133c-.15.234-.296.473-.437.718l-.056.103c-.16.282-.306.568-.446.86-.005.004-.005.014-.01.023l-.01.024-.013.028-.047.103c.366-2.996 1.038-5.81 2.01-8.37a.467.467 0 00-.874-.328c-1.024 2.71-1.728 5.692-2.094 8.872-.085-.024-.165-.052-.254-.075-1.024-.287-2.301-.64-2.24-3.748.108-1.08.357-2.17.732-3.241.198-.564.442-1.132.724-1.696 0-.004 0-.004.004-.009.221-.437.456-.86.71-1.254 1.958-2.536 3.841-3.598 5.025-4.044zm-4.64 18.684c-.179.042-1.02.277-1.325.385-1.005.347-2.254.784-3.978-1.804a13.776 13.776 0 01-1.24-3.08 14.01 14.01 0 01-.502-3.246c.089-1.738.408-3.1.798-4.157.7-.033 1.4-.127 2.076-.296a.462.462 0 00.338-.563.468.468 0 00-.563-.343 9.987 9.987 0 01-1.447.24c.488-1 1-1.597 1.263-1.865.423.108 1.334.423 2.485 1.273-.014.028-.024.06-.038.089a14.255 14.255 0 00-.558 1.367 15.185 15.185 0 00-.785 3.49c-.075 3.865 1.804 4.39 2.921 4.7.221.062.879.343.893.343h.019c-.01.024-.014.052-.024.08-.09.245-.164.48-.23.705-.005.014-.005.023-.01.037a9.18 9.18 0 00-.117.71c-.01.075-.014.15-.023.225a16.21 16.21 0 00-.038.432c-.005.075-.005.141-.005.216-.004.141 0 .277.005.409.005.051.005.103.01.15.014.174.032.334.06.484.01.005.01.014.015.019zm11.6-3.978a13.985 13.985 0 01-1.3 3.057 13.94 13.94 0 01-1.936 2.649c-2.334 2.109-3.438 1.38-4.325.794a23.638 23.638 0 00-1.498-.855c-.569-.277-1.217-.597-1.522-1.442 0-.01 0-.019-.005-.023-.225-.649-.225-1.536-.005-2.635.057-.198.122-.4.193-.597a14.852 14.852 0 01.61-1.494l.024-.05v-.006a13.434 13.434 0 01.874-1.573c.145-.225.295-.446.45-.658l.005-.004v-.005a13.48 13.48 0 011.071-1.306c.193-.173.385-.338.573-.493.056-.047.113-.089.164-.136.141-.113.277-.22.414-.32l.169-.126c.145-.103.286-.207.427-.3l.127-.085a13.65 13.65 0 011.07-.639c.071-.038.142-.07.207-.103.1-.047.198-.099.292-.146a11.886 11.886 0 01.986-.404l-2.02 6.176 5.101-4.128c.197 1.15.268 2.785-.146 4.852z"></path>
      <path d="M19.583 15.939c-.146.084-3.537 2.174-3.753 6.392a.464.464 0 00.441.489h.024c.244 0 .45-.193.465-.442.188-3.71 3.269-5.622 3.302-5.64a.466.466 0 00-.48-.8z"></path>
    </g>
    <defs>
      <clipPath id="clip0">
        <path fill="#fff" transform="translate(6 4)" d="M0 0h20.816v24H0z"></path>
      </clipPath>
    </defs>
  </symbol>
  <symbol id="washing-powder">
    <path d="M8.481 11.45a.469.469 0 100-.938.469.469 0 000 .938zm3.007 0a.469.469 0 100-.938.469.469 0 000 .938zm-1.507 1.969a.469.469 0 100-.938.469.469 0 000 .938zm3.007 0a.469.469 0 100-.938.469.469 0 000 .938zm-9.05 0a.469.469 0 100-.938.469.469 0 000 .938zm3.037 0a.469.469 0 100-.938.469.469 0 000 .938zm3.006-3.944a.469.469 0 100-.938.469.469 0 000 .938zm-3.006 0a.469.469 0 100-.938.469.469 0 000 .938zM5.506 11.45a.469.469 0 100-.938.469.469 0 000 .938z"></path>
    <path d="M30.525 14.019h-4.469a.468.468 0 100 .937h4.469a.53.53 0 01.531.532v.156a.53.53 0 01-.444.525L16.42 18.53a.47.47 0 00-.394.463V21.5a3.542 3.542 0 01-3.537 3.538h-8.02A3.542 3.542 0 01.932 21.5v-6.544h22.813a.468.468 0 100-.937h-6.938a21.93 21.93 0 00-2.062-3.806C12.856 7.456 10.688 6 8.48 6 6.275 6 4.1 7.456 2.206 10.213.813 12.238.056 14.238.025 14.319v.006c-.006.013-.006.025-.013.038 0 .006 0 .006-.006.012C0 14.387 0 14.4 0 14.419V21.5a4.478 4.478 0 004.475 4.475h8.019a4.478 4.478 0 004.475-4.475v-2.106l13.8-2.3A1.47 1.47 0 0032 15.644v-.156a1.48 1.48 0 00-1.475-1.47zM8.481 6.937c3.832 0 6.488 5.232 7.313 7.075H1.169c.819-1.843 3.475-7.075 7.312-7.075z"></path>
  </symbol>

  <symbol id="nut">
    <path d="M25.89 9.773a.37.37 0 00-.605.422c1.286 1.828 1.967 3.928 1.967 6.082 0 2.787-1.146 5.482-3.233 7.597-1.573 1.592-3.597 2.782-5.851 3.458-.451-.364-.724-1.089-.85-2.283a2.561 2.561 0 003.746-.269c.063.005.125.005.188.005a2.574 2.574 0 002.494-3.199 4.124 4.124 0 001.717-1.323c.537-.71.82-1.56.82-2.451 0-.888-.288-1.746-.815-2.451.513-.48.81-1.156.81-1.875a2.556 2.556 0 00-2.091-2.523 2.565 2.565 0 00-1.885-2.413 2.961 2.961 0 00-2.849-2.158c-.657 0-1.266.216-1.755.58.273-.647.647-1.194 1.098-1.554 2.182.763 4.115 2.015 5.597 3.655a.371.371 0 00.552-.494c-2.22-2.45-5.381-4.081-8.897-4.575a.389.389 0 00-.106 0c-3.29.465-6.307 1.942-8.494 4.158C5.223 10.416 4 13.299 4 16.277c0 2.978 1.223 5.86 3.448 8.115 2.187 2.216 5.204 3.693 8.5 4.158.018.005.033.005.052.005.02 0 .034 0 .053-.005 3.29-.465 6.307-1.942 8.499-4.158C26.772 22.138 28 19.255 28 16.277c-.01-2.302-.734-4.552-2.11-6.504zm-6.437-2.638c1.065 0 1.981.758 2.178 1.799a.368.368 0 00.297.293 1.824 1.824 0 011.51 1.707 2.546 2.546 0 00-1.553.739.37.37 0 00.259.633.364.364 0 00.259-.11 1.821 1.821 0 011.295-.538c.01 0 .019 0 .024-.005.019.005.033.005.053.005.983.043 1.75.844 1.75 1.828 0 .508-.21.983-.57 1.328a4.014 4.014 0 00-2.754-1.079.366.366 0 00-.369.37c0 .206.163.369.37.369a3.32 3.32 0 012.364.978c.02.02.038.034.058.048a.517.517 0 00.043.062 3.32 3.32 0 01.873 2.255 3.31 3.31 0 01-.672 2.01 3.4 3.4 0 01-1.41 1.083 2.567 2.567 0 00-2.211-1.256c-.686 0-1.333.268-1.818.753a.37.37 0 00.523.522 1.821 1.821 0 011.295-.537 1.826 1.826 0 011.832 1.827c0 .93-.695 1.698-1.597 1.813a2.61 2.61 0 00.149-.863.366.366 0 00-.37-.37.366.366 0 00-.369.37 1.833 1.833 0 01-1.827 1.827 1.835 1.835 0 01-1.832-1.832c0-.508.206-.983.575-1.333a.369.369 0 00.038-.494 2.864 2.864 0 01-.613-1.784c0-.902.407-1.736 1.117-2.293l.01-.01a2.875 2.875 0 011.78-.608.367.367 0 00.368-.37.366.366 0 00-.369-.37c-.715 0-1.39.202-1.98.586a3.444 3.444 0 01-.922-2.34c0-.912.355-1.765.993-2.413 0 0 0-.005.005-.005a3.418 3.418 0 012.437-1.017.366.366 0 00.369-.369.366.366 0 00-.37-.37 4.136 4.136 0 00-2.719 1.008 2.225 2.225 0 01-.715-1.63 2.22 2.22 0 012.216-2.217zM4.74 16.277c0-2.787 1.146-5.482 3.232-7.597 1.425-1.444 3.223-2.556 5.223-3.257.451.36.83.902 1.099 1.55a2.96 2.96 0 00-4.605 1.582 2.566 2.566 0 00-1.885 2.413 2.564 2.564 0 00-2.09 2.522c0 .715.297 1.391.81 1.876a4.078 4.078 0 00-.806 2.714c.014.202.192.36.393.346a.37.37 0 00.346-.394c-.005-.072-.005-.143-.005-.215 0-.835.312-1.636.873-2.255a.183.183 0 00.043-.062.415.415 0 00.057-.048 3.32 3.32 0 012.365-.978c.206 0 .37-.163.37-.37a.366.366 0 00-.37-.369 4.05 4.05 0 00-2.767 1.084 1.83 1.83 0 011.18-3.156c.019 0 .033-.005.052-.005.01.005.02.005.024.005.49 0 .95.192 1.295.537.072.072.168.11.26.11a.37.37 0 00.259-.633 2.547 2.547 0 00-1.555-.738 1.828 1.828 0 011.511-1.708.362.362 0 00.297-.292 2.224 2.224 0 012.178-1.799c1.223 0 2.22.998 2.22 2.22 0 .624-.263 1.21-.714 1.632a4.136 4.136 0 00-2.72-1.008.366.366 0 00-.369.37c0 .206.163.369.37.369a3.398 3.398 0 012.44 1.022c.643.647.993 1.506.993 2.412a3.43 3.43 0 01-.93 2.345 3.602 3.602 0 00-1.98-.585.366.366 0 00-.37.37c0 .206.163.369.37.369.651 0 1.265.21 1.778.609l.01.01a2.895 2.895 0 011.118 2.292c0 .652-.211 1.271-.614 1.784a.369.369 0 00.038.494c.37.35.576.825.576 1.334 0 1.007-.82 1.832-1.833 1.832a1.827 1.827 0 01-1.827-1.828.366.366 0 00-.37-.369.366.366 0 00-.368.37c0 .297.052.59.148.863a1.833 1.833 0 01-1.597-1.813 1.826 1.826 0 011.832-1.827c.49 0 .95.191 1.295.537a.37.37 0 00.523-.523 2.573 2.573 0 00-4.029.504 3.376 3.376 0 01-1.75-1.64.375.375 0 00-.494-.174.375.375 0 00-.173.494 4.106 4.106 0 002.13 2 2.574 2.574 0 002.494 3.2c.062 0 .124 0 .187-.005a2.561 2.561 0 003.745.268c-.124 1.195-.398 1.914-.849 2.283-2.254-.676-4.278-1.865-5.851-3.458-2.062-2.134-3.213-4.83-3.213-7.616zm11.256 11.535c-.46-.067-.911-.154-1.357-.26.604-.776.858-2.129.858-4.383 0-.595-.21-1.175-.585-1.63.384-.59.585-1.272.585-1.981 0-.988-.393-1.919-1.088-2.6a4.184 4.184 0 001.088-2.81c0-.97-.33-1.89-.935-2.634.59-.556.935-1.338.935-2.158 0-.93-.182-1.851-.522-2.671-.255-.605-.58-1.118-.964-1.516A15.288 15.288 0 0116 4.742c.681.1 1.343.24 1.99.427a4.89 4.89 0 00-.964 1.516 7.017 7.017 0 00-.522 2.671c0 .82.345 1.602.935 2.158a4.157 4.157 0 00-.935 2.634c0 1.04.393 2.047 1.088 2.81a3.626 3.626 0 00-1.088 2.6c0 .714.201 1.39.585 1.98a2.582 2.582 0 00-.585 1.631c0 2.25.254 3.602.858 4.384-.455.105-.906.192-1.367.259z"></path>
  </symbol>

  <symbol id="grape">
    <path d="M16.443 12.714c2.16-1.489 1.653-5.2-.935-5.913-.183-.052-.91-.024-1-.108-.146-.141-.235-.813-.347-1.02a3.256 3.256 0 00-1.447-1.366c-1.268-.61-2.8-.348-3.743.709-.912-1.23-2.499-1.606-3.87-.944A3.412 3.412 0 003.626 5.42c-.174.3-.3.625-.371.967-.08.41.023.785-.01 1.184-.023.277.043.22-.258.333a3.447 3.447 0 00-.493.24 3.204 3.204 0 00-.892.813 3.487 3.487 0 00-.681 2.179 3.285 3.285 0 00.47 1.597c.046.075.154.188.178.263.07.216.07.042-.033.249-.197.385-.56.662-.733 1.085a3.416 3.416 0 00.005 2.62c.08.193.211.357.296.545.07.155.127.141.089.272-.019.062-.282.254-.32.296A3.43 3.43 0 000 20.374c.014 1.818 1.508 3.34 3.349 3.245a3.256 3.256 0 002.193-1.014c.085-.09.315-.526.413-.559.08-.023.489.188.573.212.432.112.888.126 1.33.047a3.266 3.266 0 002.061-1.292c.137-.183.212-.413.343-.592.033-.042.057-.22.099-.244.019-.01.305.084.366.094.48.094.982.07 1.456-.061a3.32 3.32 0 001.343-.756c.104-.099.418-.606.531-.649.127-.042.554.146.705.165.995.108 2.005-.287 2.69-1.01 1.48-1.578.968-4.32-1.009-5.246.127-.09.254-.174.38-.263-.126.09-.253.174-.38.263zm-2.64-3.363a2.32 2.32 0 00.315-.456c.028-.046.052-.093.075-.145.113-.23.207-.465.263-.714.08-.343.01-.39.348-.423.324-.028.714.132.982.291.54.325.892.888 1.033 1.494a2.62 2.62 0 01-.207 1.78c-.15.291-.366.545-.63.737-.088.066-.873.442-.873.357v-.047a2.47 2.47 0 00-.01-.333c0-.019-.004-.033-.004-.052v-.01a3.31 3.31 0 00-1.38-2.39c.032-.023.06-.056.088-.089.015-.014-.028.033 0 0 .118-.136-.028.033 0 0zm-.065 1.395c.01.01.014.019.019.028.117.165.206.343.281.526.01.024.014.042.024.066.005.01.005.019.01.028l.013.042c.052.15.075.31.099.465 0 .024.005.043.005.066 0 .01 0 .024.004.033 0 .024.005.042.005.066v.014c.01.202.005.441-.061.634-.005.019-.005.037-.01.051-.333.808-.85 1.527-1.756 1.72-.564.122-1.245.018-1.714-.334-.038-.023-.075-.052-.108-.075-.963-.733-1.142-2.053-.569-3.086.592-1.07 1.672-1.385 2.79-1.01.024.01.047.024.07.033.024.01.048.024.071.033.005 0 .01.005.014.005.066.033.132.07.193.113.056.037.112.075.169.117.051.038.098.08.145.127.01.01.02.014.024.023.066.052.258.287.282.315.005.01-.028-.038 0 0zm-4.922.507a3.78 3.78 0 00-.07.315c-.668.019-1.255-.277-1.715-.742a2.404 2.404 0 01-.573-1.118c-.437-1.146.625-2.536 1.69-2.804A3.36 3.36 0 009.53 9.952a3.357 3.357 0 00-.714 1.306l.056-.202-.056.197c-.029.104.136-.483 0 0zm.68 3.09c-.53.376-1.01.959-1.192 1.593a2.039 2.039 0 01-.226-.066 2.255 2.255 0 00-.662-.09c-.09 0-.178 0-.268.006-.07.014-.136.018-.206.018a.923.923 0 00-.165.024h-.01a.188.188 0 01-.07.014c-.765-.418-1.272-1.282-1.23-2.16v-.005c0-.024 0-.047.005-.07v-.01c0-.019.004-.038.004-.052v-.005c.005-.065.01-.154.028-.22.015-.09.038-.179.062-.263 0-.005 0-.005.004-.01 0-.004.005-.01.005-.014.047-.16.117-.3.188-.45.037-.066.075-.132.122-.198a2.09 2.09 0 01.455-.498.638.638 0 01.17-.127.319.319 0 01.056-.037.19.19 0 01.042-.024 3.137 3.137 0 002.086.794h.014c.014.179.033.437.117.601.01.033.019.066.033.104 0 .004.005.004.005.009.009.033.023.066.032.103.132.376.339.728.602 1.034zm-.159-8.247c0-.004.005-.01.005-.014v-.005c1.117-2.047 4.26-1.131 4.288 1.137v.019c0 .545-.188 1.07-.517 1.498l-.01.01a2.322 2.322 0 01-.253.272c-.62-.202-1.475-.24-2.076.061-.09.033-.432.254-.507.249-.122-.005-.31-.207-.395-.277a2.316 2.316 0 01-.629-.855c0-.005-.005-.01-.005-.01-.281-.666-.216-1.521.08-2.066-.023.056-.019.047.019-.019 0-.004-.07.132 0 0zM6.411 4.64c.84 0 1.61.48 2.01 1.23-.005.01-.005.015-.01.024l-.013.033c-1.64.155-2.894 1.62-2.917 3.246a1.995 1.995 0 01-.526-.334c-.019-.014-.033-.028-.052-.042-1.69-1.273-.498-4.157 1.508-4.157zM3.64 8.68c.005.004.005.009.01.014.056.098.14.253.225.338l.037.051.029.033c.014.014.023.033.037.047.249.3.578.587.935.761.188.099.568.146.714.277.15.132.249.606.366.794a2.35 2.35 0 00-.446.362c-.01.004-.014.014-.024.018l-.037.038a3.26 3.26 0 00-.55.747.171.171 0 00-.07.136c-.01.023-.024.047-.033.07v.005a3.09 3.09 0 00-.09.22c-.023.062-.051.128-.06.193l-.015.057-.014.056c0 .005-.004.014-.004.019a.137.137 0 00-.01.042v.01c-.023.103-.033.21-.06.314v.029l-.076.013a2.184 2.184 0 01-.554.024h-.005c-.023 0-.042-.005-.066-.005h-.014a2.286 2.286 0 01-.798-.253.845.845 0 00-.127-.07c-.023-.015-.047-.029-.07-.048-.02-.014-.038-.023-.052-.037h-.005l-.136-.108c-1.437-1.198-.892-3.744.963-4.148-.01-.014-.404.09-.46.104.155-.043.31-.07.46-.104.005.005-1.038.226 0 0zm-1.278 5.072c.16.108.475.338.672.338a3.1 3.1 0 00.897.188c.15.01.329.023.48-.01.112-.07.168-.075.168-.018.075.483.259 1.07.587 1.446.146.202.31.385.498.55l.005.005c-.47.29-1.362 1.06-1.362 1.68a2.04 2.04 0 01-.338.062c-.01 0-.02 0-.028.005-2.255.206-3.312-2.884-1.579-4.246.005.005-.21.225-.244.202 0 0 .315-.254.244-.202.08.051-.563.446 0 0zm.836 8.966c-1.188 0-2.099-.944-2.24-2.095a2.429 2.429 0 01.324-1.564c.118-.193.334-.535.554-.61.259-.09.738.248 1.043.352a2.9 2.9 0 001.062.117l.178-.014c-.024.4.028.831.164 1.207.052.165.113.343.202.489a2.7 2.7 0 00.47.685c.235.273.263.259.028.56a2.25 2.25 0 01-1.785.874zm6.388-3.25c0 .004 0 .004 0 0-.291 1.78-2.48 2.588-3.8 1.329-.591-.568-.939-1.405-.723-2.217.207-.765.836-1.677 1.696-1.803.427-.113 1.291-.15 1.639.197h.004c.883.483 1.339 1.582 1.189 2.46.004-.042.004-.032-.005.034 0 .004.019-.127 0 0zm1.747-.052a2.21 2.21 0 01-.798-.15 2.323 2.323 0 000-.4 4.073 4.073 0 00-.052-.408.543.543 0 00-.019-.085v-.004c-.005-.024-.01-.052-.019-.075v-.005c-.117-.432-.352-1.17-.751-1.437-.019-.024-.038-.043-.056-.061l-.029-.033a3.1 3.1 0 00-.465-.4c0-.004.005-.009.005-.014l.014-.042c.042-.14.108-.291.183-.423.104-.197.24-.38.4-.535l.037-.038a.234.234 0 01.038-.032c.01-.01.019-.02.033-.029a.075.075 0 01.018-.014c.01-.01.024-.018.033-.028a1.8 1.8 0 01.334-.23c.507.32 1.08.479 1.681.479v.019c-.028.47.038.94.197 1.38.09.245.334.893.592 1.024a.05.05 0 00.024.024 2.953 2.953 0 00.343.338c.201.07.216.164.051.287-.07.173-.329.347-.474.455-.39.282-.846.437-1.32.437zm3.78-1.338c-1.427 0-2.474-1.395-2.258-2.767.418-.131.948-.376 1.226-.728.033-.033.065-.06.094-.094l.014-.014a1.97 1.97 0 00.122-.136c.014-.014.023-.028.037-.042a.054.054 0 00.014-.02c.07-.084.165-.196.216-.295.118-.183.226-.38.301-.582.005-.014.01-.024.014-.038 1.31-.127 2.456.982 2.503 2.268.047 1.264-.981 2.447-2.282 2.447zM20.445 6.75a.461.461 0 11.001-.923.461.461 0 01-.001.922z"></path>
    <path d="M23.803 7.839c-.414-1.7-1.649-3.152-3.678-4.321.291-.442 1.8-3.33.728-3.509-.653-.108-.648 1.029-.77 1.428-.207.681-.512 1.334-.953 1.898-.855 1.122-2.278 1.756-3.673 1.756-.395-.023-.634.475-.371.77.183.202.493.16.742.146a5.699 5.699 0 002.578-.812c-.887 3.297 1.297 5.762 3.899 7.43.004.004.009.004.014.01.075.046.183.07.272.06.005 0 .014 0 .023-.005.02 0 .033-.004.052-.009.028-.005.056-.019.085-.028.004 0 .004-.005.01-.005.004 0 .004-.005.009-.005a.434.434 0 00.164-.14s.005-.005.005-.01c.051-.084 1.47-2.16.864-4.654-.414-1.7.606 2.494 0 0zm-1.15 3.165a85.72 85.72 0 00-.762-2.348c-.127-.376-.286-1.292-.78-1.348-.803-.09-.366.869-.234 1.235.3.836.563 1.691.831 2.537-1.038-.804-2.029-1.813-2.423-3.096-.386-1.24-.076-2.489.39-3.658 2.442 1.409 4.09 3.813 2.977 6.678-.385-1.226 0 0 0 0z"></path>
  </symbol>
</svg>




























</svg>

